<svg width="26" height="26" viewBox="0 0 26 26" fill="none" xmlns="http://www.w3.org/2000/svg">
<path d="M7.74583 22.8583C7.475 22.5875 7.33958 22.2668 7.33958 21.8963C7.33958 21.5258 7.475 21.2055 7.74583 20.9354L15.6813 13L7.71875 5.0375C7.46597 4.78472 7.33958 4.46875 7.33958 4.08958C7.33958 3.71041 7.475 3.38541 7.74583 3.11458C8.01667 2.84374 8.33733 2.70833 8.70783 2.70833C9.07833 2.70833 9.39864 2.84374 9.66875 3.11458L18.7688 12.2417C18.8771 12.35 18.954 12.4674 18.9995 12.5937C19.045 12.7201 19.0674 12.8556 19.0667 13C19.0667 13.1444 19.0439 13.2799 18.9984 13.4062C18.9529 13.5326 18.8764 13.65 18.7688 13.7583L9.64167 22.8854C9.38889 23.1382 9.07725 23.2646 8.70675 23.2646C8.33625 23.2646 8.01595 23.1292 7.74583 22.8583Z" fill="white"/>
</svg>
