<svg width="30" height="30" viewBox="0 0 30 30" fill="none" xmlns="http://www.w3.org/2000/svg">
<path d="M2.5 25V18.75H7.5V20H10V18.75H20V20H22.5V18.75H27.5V25H2.5ZM2.5 12.5C2.5 11.8125 2.745 11.2238 3.235 10.7338C3.725 10.2438 4.31333 9.99917 5 10H8.75V7.5C8.75 6.8125 8.995 6.22375 9.485 5.73375C9.975 5.24375 10.5633 4.99917 11.25 5H18.75C19.4375 5 20.0263 5.245 20.5163 5.735C21.0063 6.225 21.2508 6.81334 21.25 7.5V10H25C25.6875 10 26.2763 10.245 26.7663 10.735C27.2563 11.225 27.5008 11.8133 27.5 12.5V17.5H22.5V15H20V17.5H10V15H7.5V17.5H2.5V12.5ZM11.25 10H18.75V7.5H11.25V10Z" fill="#1C224B"/>
</svg>
